<svg width="40" height="40" fill="none" xmlns="http://www.w3.org/2000/svg"><path d="M32.17 30.625a1.135 1.135 0 112.185.623 5.684 5.684 0 01-4.086 3.97l-18.46 4.628c-3.122.723-6.183-1.169-6.891-4.249L.147 14.865C-.55 11.84 1.299 8.813 4.302 8.06l4.291-1.075a1.14 1.14 0 01.55 2.21l-4.29 1.075a3.417 3.417 0 00-2.493 4.083l4.77 20.732c.426 1.848 2.263 2.983 4.147 2.547l18.441-4.624a3.41 3.41 0 002.453-2.383zm5.559-7.18V5.695a3.412 3.412 0 00-3.407-3.417H13.878a3.412 3.412 0 00-3.407 3.416V18.89L15.347 14a1.133 1.133 0 011.606 0l8.428 8.451 6.04-4.037a1.133 1.133 0 011.432.142l4.876 4.89zm-.029 3.193l-5.795-5.811-6.04 4.037a1.13 1.13 0 01-1.432-.142l-8.283-8.306-5.678 5.695v4.084a3.412 3.412 0 003.407 3.416H34.32a3.411 3.411 0 003.38-2.973zM13.88 0h20.443C37.458 0 40 2.55 40 5.694v20.5c0 3.146-2.542 5.695-5.678 5.695H13.878c-3.136 0-5.679-2.55-5.679-5.694v-20.5C8.2 2.55 10.743 0 13.88 0zm14.764 4.556h4.543a2.275 2.275 0 012.271 2.277v4.556a2.275 2.275 0 01-2.271 2.278h-4.543a2.275 2.275 0 01-2.271-2.278V6.833a2.275 2.275 0 012.27-2.277zm0 2.277v4.556h4.543V6.833h-4.543z" fill="#E2D8B5"/></svg>